<?xml version="1.0" encoding="UTF-8" standalone="no"?><!DOCTYPE svg PUBLIC "-//W3C//DTD SVG 1.1//EN" "http://www.w3.org/Graphics/SVG/1.1/DTD/svg11.dtd"><svg width="100%" height="100%" viewBox="0 0 10417 8563" version="1.1" xmlns="http://www.w3.org/2000/svg" xmlns:xlink="http://www.w3.org/1999/xlink" xml:space="preserve" xmlns:serif="http://www.serif.com/" style="fill-rule:evenodd;clip-rule:evenodd;stroke-linejoin:round;stroke-miterlimit:2;"><path d="M2572.642,2.994c169.469,2.603 290.779,10.153 360.806,22.258c58.052,10.022 152.939,30.197 210.861,44.905c58.052,14.708 157.885,44.645 222.054,66.512c64.169,21.867 191.467,76.665 283.1,121.57c91.633,44.905 218.931,116.624 283.1,159.317c64.169,42.693 164.003,117.535 222.054,166.476c58.052,48.94 259.02,242.88 787.864,773.155l0.13,99.833l-805.045,804.264l-99.573,-0.521l-366.273,-363.93c-245.223,-243.531 -392.044,-380.851 -444.109,-415.083c-42.693,-28.115 -120.138,-71.068 -172.073,-95.668c-51.934,-24.47 -141.875,-57.271 -199.797,-72.76c-58.052,-15.489 -155.412,-32.28 -216.457,-37.356c-61.045,-5.076 -158.406,-5.206 -216.457,-0.39c-58.052,4.816 -147.863,19.524 -199.797,32.54c-51.934,13.146 -136.799,42.042 -188.733,64.299c-51.934,22.258 -139.272,69.766 -194.33,105.43c-54.928,35.664 -142.917,107.903 -195.632,160.618c-52.585,52.585 -124.954,140.574 -160.618,195.502c-35.794,54.928 -83.173,142.266 -105.56,194.2c-22.258,51.804 -51.283,136.669 -64.43,188.603c-13.146,51.804 -27.724,141.745 -32.67,199.667c-4.816,57.922 -4.686,155.282 0.39,216.327c5.076,61.045 21.867,158.406 37.486,216.327c15.489,57.922 48.29,147.863 72.76,199.667c24.47,51.804 67.553,129.25 95.538,171.942c35.794,54.537 198.365,225.439 1040.896,1070.573l1831.623,-1828.629c1007.445,-1005.753 1874.186,-1862.341 1925.99,-1903.472c51.934,-41.131 141.875,-106.472 199.797,-144.999c58.052,-38.658 152.939,-95.408 210.861,-125.996c58.052,-30.718 160.358,-78.227 227.521,-105.691c67.163,-27.464 182.095,-67.293 255.376,-88.379c73.281,-21.086 198.105,-50.112 277.503,-64.299c126.126,-22.518 179.882,-25.772 427.448,-25.772c247.436,-0 301.192,3.254 427.448,25.772c79.398,14.188 204.222,43.083 277.503,64.299c73.281,21.086 188.213,60.915 255.376,88.379c67.163,27.464 169.6,75.363 227.521,106.341c58.052,30.978 147.863,84.214 199.797,118.316c51.934,34.102 141.875,99.964 199.797,146.431c58.052,46.467 160.618,141.485 228.042,210.991c67.423,69.506 152.939,166.346 189.905,215.156c36.966,48.81 93.455,128.729 125.605,177.539c32.02,48.81 95.017,163.612 139.923,255.115c44.905,91.503 101.525,226.35 125.735,299.5c24.21,73.281 56.62,190.555 71.979,260.712c15.489,70.157 33.321,169.99 39.699,221.924c6.378,51.804 14.838,156.714 18.613,232.988c3.905,78.487 1.302,206.045 -6.248,294.033c-7.159,85.386 -23.169,207.737 -35.534,271.776c-12.365,64.039 -34.883,161.399 -50.242,216.327c-15.359,54.928 -45.686,147.212 -67.423,205.264c-21.737,57.922 -60.915,150.336 -87.208,205.264c-26.292,54.928 -76.274,147.212 -111.157,205.264c-34.883,57.922 -96.84,150.336 -137.58,205.264c-40.74,54.928 -121.831,152.288 -180.273,216.327c-58.442,64.039 -235.331,244.963 -680.22,687.51l-111.027,0.13l-386.968,-385.406c-220.492,-219.581 -393.606,-400.895 -402.457,-421.461c-8.721,-20.435 -12.495,-49.331 -8.46,-66.512c4.686,-20.305 124.304,-149.034 358.463,-385.536c229.734,-232.077 371.089,-383.844 407.924,-438.252c30.978,-45.817 73.931,-118.186 95.408,-160.879c21.477,-42.693 52.064,-118.837 68.074,-169.209c16.01,-50.372 36.575,-135.237 45.817,-188.603c9.241,-53.366 16.661,-138.231 16.661,-188.603c0,-50.372 -5.597,-130.161 -12.235,-177.539c-6.638,-47.248 -24.6,-128.469 -39.699,-180.273c-15.099,-51.804 -44.905,-131.723 -66.252,-177.539c-21.216,-45.817 -65.341,-123.132 -97.751,-171.942c-32.54,-48.81 -93.455,-123.913 -135.367,-166.736c-41.912,-42.953 -111.157,-104.389 -153.85,-136.539c-42.693,-32.15 -125.215,-82.652 -183.136,-112.199c-58.052,-29.547 -147.863,-66.512 -199.797,-82.001c-51.934,-15.489 -126.777,-33.842 -166.476,-40.74c-39.699,-6.899 -132.113,-12.365 -205.394,-12.105c-73.281,0.26 -173.114,8.07 -222.054,17.442c-48.81,9.372 -126.256,29.547 -172.073,44.905c-45.817,15.229 -115.713,44.125 -155.412,64.039c-39.699,19.915 -109.595,60.785 -155.412,90.722c-61.566,40.35 -211.251,181.835 -1066.147,1032.306l1315.666,1314.624c1206.591,1205.55 1315.666,1317.618 1315.666,1350.679c0,19.784 -7.159,49.721 -15.88,66.512c-8.721,16.791 -734.367,747.253 -1612.432,1623.236c-1205.81,1202.816 -1610.089,1599.807 -1652.001,1621.804c-30.588,16.01 -85.516,36.966 -122.091,46.467c-36.575,9.502 -96.579,17.181 -133.155,17.051c-36.575,-0.13 -89.03,-5.597 -116.624,-11.975c-27.464,-6.378 -77.446,-24.34 -111.027,-39.959c-53.236,-24.6 -333.602,-300.281 -2179.543,-2143.098c-1165.07,-1163.117 -2158.457,-2162.232 -2207.398,-2220.153c-48.94,-57.922 -120.529,-152.809 -158.926,-210.73c-38.528,-57.922 -91.894,-145.39 -118.577,-194.2c-26.683,-48.81 -67.814,-131.202 -91.503,-183.006c-23.689,-51.804 -60.004,-144.218 -80.83,-205.264c-20.826,-61.045 -49.852,-158.406 -64.43,-216.327c-14.708,-57.922 -34.883,-152.809 -44.775,-210.73c-10.673,-62.347 -20.435,-200.448 -23.819,-338.418c-4.425,-179.231 -1.562,-265.007 12.495,-371.609c10.022,-76.274 31.108,-196.022 46.858,-266.309c15.749,-70.157 48.29,-184.959 72.369,-255.115c24.08,-70.157 73.801,-190.035 110.376,-266.309c36.705,-76.274 89.681,-176.108 117.796,-221.924c28.115,-45.817 93.976,-140.574 146.171,-210.73c52.194,-70.157 155.022,-187.562 228.432,-260.972c73.411,-73.411 190.946,-176.108 261.103,-228.302c70.157,-52.194 165.174,-117.926 210.861,-146.04c45.817,-28.115 145.65,-81.09 222.054,-117.796c76.274,-36.575 196.152,-86.297 266.439,-110.376c70.157,-24.08 185.089,-56.62 255.376,-72.5c70.157,-15.749 180.143,-36.185 244.182,-45.166c84.474,-11.975 186.781,-15.359 371.869,-12.495l0.26,0.13Zm2220.283,4011.817c-36.575,13.146 -114.021,48.42 -172.073,78.487c-58.052,30.067 -150.075,90.722 -204.483,134.716c-54.407,43.994 -135.758,124.954 -180.533,179.882c-54.017,66.252 -103.999,144.739 -148.123,232.988c-41.261,82.652 -77.576,175.196 -95.538,244.052c-22.518,85.906 -30.197,147.212 -34.493,271.776c-4.035,119.618 -0.911,185.089 12.235,255.115c9.762,51.804 28.115,126.777 40.871,166.346c12.756,39.699 44.775,117.015 71.198,171.942c26.423,54.928 77.706,139.793 114.021,188.603c36.315,48.81 104.259,124.954 151.117,169.209c46.858,44.255 123.783,105.821 171.161,136.669c47.379,30.978 115.973,70.547 152.679,87.859c36.575,17.311 97.881,41.912 136.018,54.668c38.137,12.756 105.56,30.848 149.815,40.35c44.255,9.502 130.421,20.175 191.467,23.689c64.43,3.775 152.939,0.781 210.861,-7.159c54.928,-7.419 142.396,-25.902 194.33,-41.001c51.934,-15.099 134.326,-46.077 183.136,-68.855c48.81,-22.778 128.729,-68.595 177.67,-101.786c48.81,-33.321 128.729,-100.484 177.67,-149.294c48.81,-48.81 116.103,-128.729 149.425,-177.539c33.321,-48.81 79.138,-128.729 101.916,-177.539c22.778,-48.81 53.626,-131.202 68.725,-183.006c15.099,-51.804 33.581,-144.218 41.261,-205.264c7.94,-63.779 11.064,-153.329 7.159,-210.73c-3.645,-54.928 -14.188,-134.847 -23.299,-177.539c-9.111,-42.693 -27.334,-110.116 -40.35,-149.815c-13.146,-39.699 -48.29,-119.488 -78.096,-177.539c-29.937,-57.922 -78.747,-137.84 -108.684,-177.539c-29.807,-39.699 -91.113,-107.253 -136.148,-150.075c-45.036,-42.953 -119.227,-103.348 -165.044,-134.326c-45.817,-30.978 -108.294,-68.985 -138.751,-84.344c-30.588,-15.359 -100.484,-43.864 -155.412,-63.128c-54.928,-19.264 -142.396,-42.432 -194.33,-51.283c-51.934,-8.981 -154.371,-15.749 -227.521,-15.359c-84.735,0.521 -169.6,8.591 -233.118,21.867c-54.928,11.584 -129.901,31.629 -166.476,44.775l-0.26,0.13Zm438.512,381.501c51.934,2.473 120.789,11.194 152.939,19.134c45.166,11.194 56.88,18.353 51.283,31.239c-4.035,9.111 -13.927,34.102 -21.997,55.449c-8.07,21.346 -14.838,60.004 -15.099,86.036c-0.26,25.902 9.372,73.411 21.477,105.43c12.105,32.02 36.315,75.754 53.887,97.1c17.572,21.346 58.833,53.756 91.763,72.109c51.674,28.766 71.328,33.321 143.177,33.321c73.411,0 90.722,-4.295 210.861,-72.109l23.169,52.715c12.756,29.026 33.451,92.675 45.817,141.485c18.873,73.931 21.607,110.897 16.661,221.924c-4.165,95.017 -12.886,153.72 -30.197,205.264c-13.407,39.699 -38.788,99.573 -56.49,133.155c-17.702,33.581 -56.229,90.982 -85.516,127.558c-29.416,36.575 -83.173,90.592 -119.488,120.008c-36.315,29.416 -106.081,72.63 -154.891,96.189c-48.81,23.429 -123.783,51.023 -166.476,61.436c-59.093,14.188 -110.897,17.572 -216.457,13.797c-113.5,-4.035 -154.891,-10.413 -227.521,-35.143c-48.81,-16.661 -123.783,-51.804 -166.476,-78.227c-43.083,-26.553 -114.802,-86.947 -161.009,-135.497c-59.744,-62.868 -96.449,-114.151 -129.77,-181.574c-25.642,-51.674 -54.668,-126.386 -64.69,-166.085c-10.022,-39.699 -20.696,-112.068 -23.689,-160.879c-3.384,-53.756 0.781,-123.653 10.543,-177.539c8.851,-48.81 29.156,-121.18 45.296,-160.879c16.14,-39.699 45.426,-99.443 65.341,-132.764c19.784,-33.321 71.198,-95.798 114.151,-138.621c42.953,-42.953 105.43,-94.236 138.751,-114.021c33.321,-19.784 93.195,-49.201 132.894,-65.341c39.699,-16.14 107.122,-36.055 149.815,-44.125c43.994,-8.46 118.577,-12.886 172.073,-10.283l-0.13,-0.26Z" style="fill-rule:nonzero;"/></svg>